<mxfile host="app.diagrams.net" agent="Mozilla/5.0 (Windows NT 10.0; Win64; x64) AppleWebKit/537.36 (KHTML, like Gecko) Chrome/127.0.0.0 Safari/537.36" version="24.7.7">
  <diagram name="Page-1" id="8QNY5prcgNMq-toAj6ap">
    <mxGraphModel dx="1034" dy="492" grid="1" gridSize="10" guides="1" tooltips="1" connect="1" arrows="1" fold="1" page="1" pageScale="1" pageWidth="850" pageHeight="1100" math="0" shadow="0">
      <root>
        <mxCell id="0" />
        <mxCell id="1" parent="0" />
        <mxCell id="sReDk6N7TxDtU3i_ZSNK-1" value="" style="image;html=1;image=img/lib/clip_art/networking/Firewall_02_128x128.png" vertex="1" parent="1">
          <mxGeometry x="487.5" y="420" width="80" height="80" as="geometry" />
        </mxCell>
        <mxCell id="sReDk6N7TxDtU3i_ZSNK-2" value="AFCOM ISP" style="image;aspect=fixed;perimeter=ellipsePerimeter;html=1;align=center;shadow=0;dashed=0;spacingTop=3;image=img/lib/active_directory/internet_cloud.svg;" vertex="1" parent="1">
          <mxGeometry x="720" y="318.18" width="120" height="75.6" as="geometry" />
        </mxCell>
        <mxCell id="sReDk6N7TxDtU3i_ZSNK-3" value="" style="image;html=1;image=img/lib/clip_art/networking/Switch_128x128.png" vertex="1" parent="1">
          <mxGeometry x="472.5" y="310" width="80" height="80" as="geometry" />
        </mxCell>
        <mxCell id="sReDk6N7TxDtU3i_ZSNK-5" value="" style="image;html=1;image=img/lib/clip_art/networking/Switch_128x128.png" vertex="1" parent="1">
          <mxGeometry x="347.5" y="420" width="80" height="80" as="geometry" />
        </mxCell>
        <mxCell id="sReDk6N7TxDtU3i_ZSNK-9" value="" style="sketch=0;aspect=fixed;pointerEvents=1;shadow=0;dashed=0;html=1;strokeColor=none;labelPosition=center;verticalLabelPosition=bottom;verticalAlign=top;align=center;fillColor=#00188D;shape=mxgraph.mscae.enterprise.application_server2" vertex="1" parent="1">
          <mxGeometry x="552" y="188" width="43" height="50" as="geometry" />
        </mxCell>
        <mxCell id="sReDk6N7TxDtU3i_ZSNK-12" value="" style="image;aspect=fixed;perimeter=ellipsePerimeter;html=1;align=center;shadow=0;dashed=0;spacingTop=3;image=img/lib/active_directory/domain_controller.svg;" vertex="1" parent="1">
          <mxGeometry x="629.48" y="178" width="56" height="80" as="geometry" />
        </mxCell>
        <mxCell id="sReDk6N7TxDtU3i_ZSNK-13" value="" style="verticalLabelPosition=bottom;sketch=0;aspect=fixed;html=1;verticalAlign=top;strokeColor=none;align=center;outlineConnect=0;shape=mxgraph.citrix.file_server;" vertex="1" parent="1">
          <mxGeometry x="307.5" y="150" width="71" height="97" as="geometry" />
        </mxCell>
        <mxCell id="sReDk6N7TxDtU3i_ZSNK-15" value="" style="sketch=0;pointerEvents=1;shadow=0;dashed=0;html=1;strokeColor=none;fillColor=#005F4B;labelPosition=center;verticalLabelPosition=bottom;verticalAlign=top;align=center;outlineConnect=0;shape=mxgraph.veeam2.esxi_hyper_v_ahv_host;" vertex="1" parent="1">
          <mxGeometry x="417.5" y="168" width="82" height="79" as="geometry" />
        </mxCell>
        <mxCell id="sReDk6N7TxDtU3i_ZSNK-16" value="" style="sketch=0;pointerEvents=1;shadow=0;dashed=0;html=1;strokeColor=none;fillColor=#005F4B;labelPosition=center;verticalLabelPosition=bottom;verticalAlign=top;align=center;outlineConnect=0;shape=mxgraph.veeam2.esxi_hyper_v_ahv_host;" vertex="1" parent="1">
          <mxGeometry x="513" y="700" width="82" height="79" as="geometry" />
        </mxCell>
        <mxCell id="sReDk6N7TxDtU3i_ZSNK-17" value="" style="verticalLabelPosition=bottom;sketch=0;aspect=fixed;html=1;verticalAlign=top;strokeColor=none;align=center;outlineConnect=0;shape=mxgraph.citrix.desktop;" vertex="1" parent="1">
          <mxGeometry x="187.5" y="430" width="54.49" height="60" as="geometry" />
        </mxCell>
        <mxCell id="sReDk6N7TxDtU3i_ZSNK-18" value="" style="image;html=1;image=img/lib/clip_art/computers/Laptop_128x128.png" vertex="1" parent="1">
          <mxGeometry x="205.48" y="310" width="62.02" height="60" as="geometry" />
        </mxCell>
        <mxCell id="sReDk6N7TxDtU3i_ZSNK-20" value="" style="endArrow=none;html=1;rounded=0;exitX=0.072;exitY=0.089;exitDx=0;exitDy=0;exitPerimeter=0;entryX=0;entryY=1;entryDx=0;entryDy=0;" edge="1" parent="1" source="sReDk6N7TxDtU3i_ZSNK-58" target="sReDk6N7TxDtU3i_ZSNK-2">
          <mxGeometry width="50" height="50" relative="1" as="geometry">
            <mxPoint x="637.5" y="370" as="sourcePoint" />
            <mxPoint x="687" y="316" as="targetPoint" />
          </mxGeometry>
        </mxCell>
        <mxCell id="sReDk6N7TxDtU3i_ZSNK-22" value="" style="endArrow=none;html=1;rounded=0;entryX=0.188;entryY=0.25;entryDx=0;entryDy=0;entryPerimeter=0;" edge="1" parent="1" source="sReDk6N7TxDtU3i_ZSNK-13" target="sReDk6N7TxDtU3i_ZSNK-3">
          <mxGeometry width="50" height="50" relative="1" as="geometry">
            <mxPoint x="497.5" y="380" as="sourcePoint" />
            <mxPoint x="547.5" y="330" as="targetPoint" />
          </mxGeometry>
        </mxCell>
        <mxCell id="sReDk6N7TxDtU3i_ZSNK-23" value="" style="endArrow=none;html=1;rounded=0;exitX=0.438;exitY=0.25;exitDx=0;exitDy=0;exitPerimeter=0;" edge="1" parent="1" source="sReDk6N7TxDtU3i_ZSNK-3" target="sReDk6N7TxDtU3i_ZSNK-15">
          <mxGeometry width="50" height="50" relative="1" as="geometry">
            <mxPoint x="497.5" y="380" as="sourcePoint" />
            <mxPoint x="547.5" y="330" as="targetPoint" />
          </mxGeometry>
        </mxCell>
        <mxCell id="sReDk6N7TxDtU3i_ZSNK-24" value="" style="endArrow=none;html=1;rounded=0;" edge="1" parent="1" target="sReDk6N7TxDtU3i_ZSNK-9">
          <mxGeometry width="50" height="50" relative="1" as="geometry">
            <mxPoint x="519" y="330" as="sourcePoint" />
            <mxPoint x="569" y="280" as="targetPoint" />
          </mxGeometry>
        </mxCell>
        <mxCell id="sReDk6N7TxDtU3i_ZSNK-25" value="" style="endArrow=none;html=1;rounded=0;entryX=0;entryY=1;entryDx=0;entryDy=0;" edge="1" parent="1" target="sReDk6N7TxDtU3i_ZSNK-12">
          <mxGeometry width="50" height="50" relative="1" as="geometry">
            <mxPoint x="532.5" y="330" as="sourcePoint" />
            <mxPoint x="582.5" y="280" as="targetPoint" />
          </mxGeometry>
        </mxCell>
        <mxCell id="sReDk6N7TxDtU3i_ZSNK-26" value="" style="endArrow=none;html=1;rounded=0;" edge="1" parent="1">
          <mxGeometry width="50" height="50" relative="1" as="geometry">
            <mxPoint x="515.5" y="430" as="sourcePoint" />
            <mxPoint x="517.5" y="370" as="targetPoint" />
            <Array as="points">
              <mxPoint x="517.5" y="360" />
            </Array>
          </mxGeometry>
        </mxCell>
        <mxCell id="sReDk6N7TxDtU3i_ZSNK-27" value="" style="endArrow=none;html=1;rounded=0;exitX=1;exitY=0.5;exitDx=0;exitDy=0;" edge="1" parent="1" source="sReDk6N7TxDtU3i_ZSNK-5">
          <mxGeometry width="50" height="50" relative="1" as="geometry">
            <mxPoint x="449.5" y="510" as="sourcePoint" />
            <mxPoint x="499.5" y="460" as="targetPoint" />
          </mxGeometry>
        </mxCell>
        <mxCell id="sReDk6N7TxDtU3i_ZSNK-28" value="" style="endArrow=none;html=1;rounded=0;entryX=0;entryY=0.5;entryDx=0;entryDy=0;" edge="1" parent="1" target="sReDk6N7TxDtU3i_ZSNK-5">
          <mxGeometry width="50" height="50" relative="1" as="geometry">
            <mxPoint x="247.5" y="460" as="sourcePoint" />
            <mxPoint x="297.5" y="410" as="targetPoint" />
          </mxGeometry>
        </mxCell>
        <mxCell id="sReDk6N7TxDtU3i_ZSNK-29" value="" style="verticalLabelPosition=bottom;sketch=0;aspect=fixed;html=1;verticalAlign=top;strokeColor=none;align=center;outlineConnect=0;shape=mxgraph.citrix.desktop;" vertex="1" parent="1">
          <mxGeometry x="187.5" y="380" width="54.49" height="60" as="geometry" />
        </mxCell>
        <mxCell id="sReDk6N7TxDtU3i_ZSNK-30" value="" style="verticalLabelPosition=bottom;sketch=0;aspect=fixed;html=1;verticalAlign=top;strokeColor=none;align=center;outlineConnect=0;shape=mxgraph.citrix.desktop;" vertex="1" parent="1">
          <mxGeometry x="197.5" y="470" width="54.49" height="60" as="geometry" />
        </mxCell>
        <mxCell id="sReDk6N7TxDtU3i_ZSNK-31" value="" style="verticalLabelPosition=bottom;sketch=0;aspect=fixed;html=1;verticalAlign=top;strokeColor=none;align=center;outlineConnect=0;shape=mxgraph.citrix.desktop;" vertex="1" parent="1">
          <mxGeometry x="197.5" y="510" width="54.49" height="60" as="geometry" />
        </mxCell>
        <mxCell id="sReDk6N7TxDtU3i_ZSNK-32" value="" style="points=[[0.03,0.36,0],[0.18,0,0],[0.5,0.34,0],[0.82,0,0],[0.97,0.36,0],[1,0.67,0],[0.975,0.975,0],[0.5,1,0],[0.025,0.975,0],[0,0.67,0]];verticalLabelPosition=bottom;sketch=0;html=1;verticalAlign=top;aspect=fixed;align=center;pointerEvents=1;shape=mxgraph.cisco19.wireless_access_point;fillColor=#005073;strokeColor=none;" vertex="1" parent="1">
          <mxGeometry x="177.5" y="197" width="50" height="50" as="geometry" />
        </mxCell>
        <mxCell id="sReDk6N7TxDtU3i_ZSNK-35" value="" style="endArrow=none;dashed=1;html=1;rounded=0;entryX=0.375;entryY=0.25;entryDx=0;entryDy=0;entryPerimeter=0;" edge="1" parent="1" target="sReDk6N7TxDtU3i_ZSNK-5">
          <mxGeometry width="50" height="50" relative="1" as="geometry">
            <mxPoint x="227.5" y="247" as="sourcePoint" />
            <mxPoint x="377.5" y="430" as="targetPoint" />
          </mxGeometry>
        </mxCell>
        <mxCell id="sReDk6N7TxDtU3i_ZSNK-37" value="" style="sketch=0;aspect=fixed;pointerEvents=1;shadow=0;dashed=0;html=1;strokeColor=none;labelPosition=center;verticalLabelPosition=bottom;verticalAlign=top;align=center;fillColor=#00188D;shape=mxgraph.mscae.enterprise.wireless_connection;rotation=-85;" vertex="1" parent="1">
          <mxGeometry x="205.48" y="288.18" width="25.2" height="30" as="geometry" />
        </mxCell>
        <mxCell id="sReDk6N7TxDtU3i_ZSNK-38" value="" style="sketch=0;points=[[0.015,0.015,0],[0.985,0.015,0],[0.985,0.985,0],[0.015,0.985,0],[0.25,0,0],[0.5,0,0],[0.75,0,0],[1,0.25,0],[1,0.5,0],[1,0.75,0],[0.75,1,0],[0.5,1,0],[0.25,1,0],[0,0.75,0],[0,0.5,0],[0,0.25,0]];verticalLabelPosition=bottom;html=1;verticalAlign=top;aspect=fixed;align=center;pointerEvents=1;shape=mxgraph.cisco19.cell_phone;fillColor=#005073;strokeColor=none;" vertex="1" parent="1">
          <mxGeometry x="127.50000000000001" y="290" width="15" height="30" as="geometry" />
        </mxCell>
        <mxCell id="sReDk6N7TxDtU3i_ZSNK-39" value="" style="sketch=0;aspect=fixed;pointerEvents=1;shadow=0;dashed=0;html=1;strokeColor=none;labelPosition=center;verticalLabelPosition=bottom;verticalAlign=top;align=center;fillColor=#00188D;shape=mxgraph.mscae.enterprise.wireless_connection;rotation=-85;" vertex="1" parent="1">
          <mxGeometry x="125.48" y="265.38" width="10.43" height="12.41" as="geometry" />
        </mxCell>
        <mxCell id="sReDk6N7TxDtU3i_ZSNK-40" value="" style="endArrow=none;html=1;rounded=0;exitX=0.438;exitY=0.25;exitDx=0;exitDy=0;exitPerimeter=0;" edge="1" parent="1" source="sReDk6N7TxDtU3i_ZSNK-4">
          <mxGeometry width="50" height="50" relative="1" as="geometry">
            <mxPoint x="487.5" y="540" as="sourcePoint" />
            <mxPoint x="537.5" y="490" as="targetPoint" />
          </mxGeometry>
        </mxCell>
        <mxCell id="sReDk6N7TxDtU3i_ZSNK-41" value="" style="endArrow=none;html=1;rounded=0;" edge="1" parent="1" source="sReDk6N7TxDtU3i_ZSNK-4">
          <mxGeometry width="50" height="50" relative="1" as="geometry">
            <mxPoint x="477.5" y="580" as="sourcePoint" />
            <mxPoint x="527.5" y="530" as="targetPoint" />
          </mxGeometry>
        </mxCell>
        <mxCell id="sReDk6N7TxDtU3i_ZSNK-4" value="" style="image;html=1;image=img/lib/clip_art/networking/Switch_128x128.png" vertex="1" parent="1">
          <mxGeometry x="501.5" y="530" width="80" height="80" as="geometry" />
        </mxCell>
        <mxCell id="sReDk6N7TxDtU3i_ZSNK-43" value="" style="endArrow=none;html=1;rounded=0;" edge="1" parent="1">
          <mxGeometry width="50" height="50" relative="1" as="geometry">
            <mxPoint x="549.556856187291" y="700" as="sourcePoint" />
            <mxPoint x="550" y="580" as="targetPoint" />
          </mxGeometry>
        </mxCell>
        <mxCell id="sReDk6N7TxDtU3i_ZSNK-44" value="&lt;b&gt;Server Zone&lt;/b&gt;" style="text;html=1;align=center;verticalAlign=middle;resizable=0;points=[];autosize=1;strokeColor=none;fillColor=none;" vertex="1" parent="1">
          <mxGeometry x="513" y="380" width="90" height="30" as="geometry" />
        </mxCell>
        <mxCell id="sReDk6N7TxDtU3i_ZSNK-45" value="&lt;b&gt;Dev/Test Zone&lt;/b&gt;" style="text;html=1;align=center;verticalAlign=middle;resizable=0;points=[];autosize=1;strokeColor=none;fillColor=none;" vertex="1" parent="1">
          <mxGeometry x="540" y="485" width="100" height="30" as="geometry" />
        </mxCell>
        <mxCell id="sReDk6N7TxDtU3i_ZSNK-46" value="&lt;b&gt;User Zone&lt;/b&gt;" style="text;html=1;align=center;verticalAlign=middle;resizable=0;points=[];autosize=1;strokeColor=none;fillColor=none;" vertex="1" parent="1">
          <mxGeometry x="417.5" y="460" width="80" height="30" as="geometry" />
        </mxCell>
        <mxCell id="sReDk6N7TxDtU3i_ZSNK-47" value="" style="image;html=1;image=img/lib/clip_art/computers/Laptop_128x128.png" vertex="1" parent="1">
          <mxGeometry x="171.49" y="648" width="62.02" height="60" as="geometry" />
        </mxCell>
        <mxCell id="sReDk6N7TxDtU3i_ZSNK-48" value="" style="points=[[0.03,0.36,0],[0.18,0,0],[0.5,0.34,0],[0.82,0,0],[0.97,0.36,0],[1,0.67,0],[0.975,0.975,0],[0.5,1,0],[0.025,0.975,0],[0,0.67,0]];verticalLabelPosition=bottom;sketch=0;html=1;verticalAlign=top;aspect=fixed;align=center;pointerEvents=1;shape=mxgraph.cisco19.wireless_access_point;fillColor=#005073;strokeColor=none;" vertex="1" parent="1">
          <mxGeometry x="110.00000000000001" y="570" width="50" height="50" as="geometry" />
        </mxCell>
        <mxCell id="sReDk6N7TxDtU3i_ZSNK-49" value="" style="sketch=0;aspect=fixed;pointerEvents=1;shadow=0;dashed=0;html=1;strokeColor=none;labelPosition=center;verticalLabelPosition=bottom;verticalAlign=top;align=center;fillColor=#00188D;shape=mxgraph.mscae.enterprise.wireless_connection;rotation=-85;" vertex="1" parent="1">
          <mxGeometry x="172.3" y="620" width="25.2" height="30" as="geometry" />
        </mxCell>
        <mxCell id="sReDk6N7TxDtU3i_ZSNK-50" value="&lt;b&gt;&lt;u&gt;SSIDs&lt;/u&gt;&lt;/b&gt;&lt;div&gt;DG&lt;/div&gt;&lt;div&gt;NMA Official&lt;/div&gt;&lt;div&gt;NMA Guest&lt;/div&gt;" style="text;html=1;align=center;verticalAlign=middle;resizable=0;points=[];autosize=1;strokeColor=none;fillColor=none;" vertex="1" parent="1">
          <mxGeometry x="95" y="118" width="90" height="70" as="geometry" />
        </mxCell>
        <mxCell id="sReDk6N7TxDtU3i_ZSNK-51" value="&lt;b style=&quot;forced-color-adjust: none; color: rgb(0, 0, 0); font-family: Helvetica; font-size: 12px; font-style: normal; font-variant-ligatures: normal; font-variant-caps: normal; letter-spacing: normal; orphans: 2; text-align: center; text-indent: 0px; text-transform: none; widows: 2; word-spacing: 0px; -webkit-text-stroke-width: 0px; white-space: nowrap; background-color: rgb(251, 251, 251); text-decoration-thickness: initial; text-decoration-style: initial; text-decoration-color: initial;&quot;&gt;&lt;u style=&quot;forced-color-adjust: none;&quot;&gt;SSIDs&lt;/u&gt;&lt;/b&gt;&lt;div style=&quot;forced-color-adjust: none; color: rgb(0, 0, 0); font-family: Helvetica; font-size: 12px; font-style: normal; font-variant-ligatures: normal; font-variant-caps: normal; font-weight: 400; letter-spacing: normal; orphans: 2; text-align: center; text-indent: 0px; text-transform: none; widows: 2; word-spacing: 0px; -webkit-text-stroke-width: 0px; white-space: nowrap; background-color: rgb(251, 251, 251); text-decoration-thickness: initial; text-decoration-style: initial; text-decoration-color: initial;&quot;&gt;DG&lt;/div&gt;&lt;div style=&quot;forced-color-adjust: none; color: rgb(0, 0, 0); font-family: Helvetica; font-size: 12px; font-style: normal; font-variant-ligatures: normal; font-variant-caps: normal; font-weight: 400; letter-spacing: normal; orphans: 2; text-align: center; text-indent: 0px; text-transform: none; widows: 2; word-spacing: 0px; -webkit-text-stroke-width: 0px; white-space: nowrap; background-color: rgb(251, 251, 251); text-decoration-thickness: initial; text-decoration-style: initial; text-decoration-color: initial;&quot;&gt;NMA Official&lt;/div&gt;&lt;div style=&quot;forced-color-adjust: none; color: rgb(0, 0, 0); font-family: Helvetica; font-size: 12px; font-style: normal; font-variant-ligatures: normal; font-variant-caps: normal; font-weight: 400; letter-spacing: normal; orphans: 2; text-align: center; text-indent: 0px; text-transform: none; widows: 2; word-spacing: 0px; -webkit-text-stroke-width: 0px; white-space: nowrap; background-color: rgb(251, 251, 251); text-decoration-thickness: initial; text-decoration-style: initial; text-decoration-color: initial;&quot;&gt;NMA Guest&lt;/div&gt;" style="text;whiteSpace=wrap;html=1;" vertex="1" parent="1">
          <mxGeometry x="100" y="510" width="100" height="80" as="geometry" />
        </mxCell>
        <mxCell id="sReDk6N7TxDtU3i_ZSNK-52" value="" style="endArrow=none;dashed=1;html=1;rounded=0;exitX=1;exitY=0.67;exitDx=0;exitDy=0;exitPerimeter=0;" edge="1" parent="1" source="sReDk6N7TxDtU3i_ZSNK-48">
          <mxGeometry width="50" height="50" relative="1" as="geometry">
            <mxPoint x="447.5" y="540" as="sourcePoint" />
            <mxPoint x="497.5" y="490" as="targetPoint" />
          </mxGeometry>
        </mxCell>
        <mxCell id="sReDk6N7TxDtU3i_ZSNK-53" value="Active Directory" style="text;html=1;align=center;verticalAlign=middle;resizable=0;points=[];autosize=1;strokeColor=none;fillColor=none;" vertex="1" parent="1">
          <mxGeometry x="609" y="138" width="110" height="30" as="geometry" />
        </mxCell>
        <mxCell id="sReDk6N7TxDtU3i_ZSNK-54" value="File Server" style="text;html=1;align=center;verticalAlign=middle;resizable=0;points=[];autosize=1;strokeColor=none;fillColor=none;" vertex="1" parent="1">
          <mxGeometry x="298.5" y="120" width="80" height="30" as="geometry" />
        </mxCell>
        <mxCell id="sReDk6N7TxDtU3i_ZSNK-55" value="&lt;b&gt;&lt;u&gt;ESXI Host VMs&lt;/u&gt;&lt;/b&gt;&lt;div&gt;Wireless Controller&lt;/div&gt;&lt;div&gt;&lt;br&gt;&lt;/div&gt;" style="text;html=1;align=center;verticalAlign=middle;resizable=0;points=[];autosize=1;strokeColor=none;fillColor=none;" vertex="1" parent="1">
          <mxGeometry x="402.5" y="118" width="120" height="60" as="geometry" />
        </mxCell>
        <mxCell id="sReDk6N7TxDtU3i_ZSNK-56" value="&lt;b&gt;&lt;u&gt;App Servers&lt;/u&gt;&lt;/b&gt;&lt;div&gt;GIMS&lt;/div&gt;&lt;div&gt;Quickbooks&lt;/div&gt;&lt;div&gt;MCAS&lt;/div&gt;" style="text;html=1;align=center;verticalAlign=middle;resizable=0;points=[];autosize=1;strokeColor=none;fillColor=none;" vertex="1" parent="1">
          <mxGeometry x="519" y="118" width="90" height="70" as="geometry" />
        </mxCell>
        <mxCell id="sReDk6N7TxDtU3i_ZSNK-57" value="Clients" style="text;html=1;align=center;verticalAlign=middle;resizable=0;points=[];autosize=1;strokeColor=none;fillColor=none;" vertex="1" parent="1">
          <mxGeometry x="110" y="400" width="60" height="30" as="geometry" />
        </mxCell>
        <mxCell id="sReDk6N7TxDtU3i_ZSNK-58" value="Fortigate Firewall" style="text;html=1;align=center;verticalAlign=middle;resizable=0;points=[];autosize=1;strokeColor=none;fillColor=none;" vertex="1" parent="1">
          <mxGeometry x="552" y="430" width="120" height="30" as="geometry" />
        </mxCell>
        <mxCell id="sReDk6N7TxDtU3i_ZSNK-59" value="Switch" style="text;html=1;align=center;verticalAlign=middle;resizable=0;points=[];autosize=1;strokeColor=none;fillColor=none;" vertex="1" parent="1">
          <mxGeometry x="372.5" y="410" width="60" height="30" as="geometry" />
        </mxCell>
        <mxCell id="sReDk6N7TxDtU3i_ZSNK-61" value="Lab VM" style="text;html=1;align=center;verticalAlign=middle;resizable=0;points=[];autosize=1;strokeColor=none;fillColor=none;" vertex="1" parent="1">
          <mxGeometry x="600" y="708" width="60" height="30" as="geometry" />
        </mxCell>
        <mxCell id="sReDk6N7TxDtU3i_ZSNK-62" value="&lt;b&gt;&lt;u&gt;NMA HQ NETWORK INFRASTRUCTURE&lt;/u&gt;&lt;/b&gt;" style="text;html=1;align=center;verticalAlign=middle;resizable=0;points=[];autosize=1;strokeColor=none;fillColor=none;" vertex="1" parent="1">
          <mxGeometry x="317.5" width="250" height="30" as="geometry" />
        </mxCell>
      </root>
    </mxGraphModel>
  </diagram>
</mxfile>
